<svg xmlns="http://www.w3.org/2000/svg" width="80" height="40" viewBox="0 0 80 40"><defs><style>.a{fill:#333e48;}.b{fill:#dc0014;fill-rule:evenodd;}</style></defs><g transform="translate(0 0.036)"><path class="a" d="M19.088,66.873c0,3.174-1.1,8.569-9.977,8.569-3.781,0-8.218-1.8-8.48-6.215H5.881C6.354,71.21,7.955,71.9,9.819,71.9c2.941,0,4.28-2.01,4.227-4.787V64.545h-.079a6.521,6.521,0,0,1-5.776,2.989C2.442,67.534,0,63.117,0,57.8c0-5.025,2.862-9.6,8.244-9.6a5.98,5.98,0,0,1,5.724,3.121h.079V48.729h5.015V66.873Zm-5.041-8.7c0-3.147-1.076-5.951-4.49-5.951-2.967,0-4.28,2.618-4.28,5.5,0,2.777,1.05,5.819,4.28,5.819C12.576,63.54,14.047,60.948,14.047,58.171Z" transform="translate(0 -35.478)"/><path class="a" d="M82,50.2h5.277V69.56H82Z" transform="translate(-60.471 -36.949)"/><path class="a" d="M120.271,69.66H114.39L107.8,50.3h5.566l4.043,13.224h.079L121.532,50.3h5.251Z" transform="translate(-79.497 -37.023)"/><path class="a" d="M183.6,59.705c.158,3.359,1.785,4.919,4.726,4.919,2.127,0,3.833-1.322,4.175-2.513h4.621c-1.5,4.576-4.647,6.506-9.006,6.506-6.065,0-9.819-4.205-9.819-10.183,0-5.819,3.991-10.236,9.819-10.236,6.538,0,9.714,5.554,9.321,11.505Zm8.585-3.359c-.473-2.7-1.628-4.126-4.2-4.126a4.183,4.183,0,0,0-4.385,4.126Z" transform="translate(-131.487 -35.478)"/><path class="a" d="M257.5,48.729h5.015v3.6h.079a6.813,6.813,0,0,1,6.144-4.126,4.221,4.221,0,0,1,1.155.185v4.946a9.957,9.957,0,0,0-1.89-.185c-3.86,0-5.2,2.8-5.2,6.215v8.728h-5.277V48.729Z" transform="translate(-189.893 -35.478)"/><path class="b" d="M80.867,3.332A3.518,3.518,0,0,0,78.11.053a3.573,3.573,0,0,0-3.649,1.27.493.493,0,0,1-.079.106.162.162,0,0,1-.105.053s-.079,0-.105-.053a1.053,1.053,0,0,0-.079-.106A3.573,3.573,0,0,0,70.444.053a3.518,3.518,0,0,0-2.757,3.28,4.774,4.774,0,0,0,1.05,3.174,25.372,25.372,0,0,0,5.435,5.184.442.442,0,0,0,.131.053c.053,0,.079-.026.131-.053a25.372,25.372,0,0,0,5.435-5.184A5.024,5.024,0,0,0,80.867,3.332Z" transform="translate(-49.912 0)"/></g></svg>